<svg width="29" height="29" viewBox="0 0 29 29" fill="none" xmlns="http://www.w3.org/2000/svg">
<g clip-path="url(#clip0_202_1980)">
<path d="M23.2148 25.0977C25.6641 25.0977 26.8945 23.8906 26.8945 21.4648V7.15625C26.8945 4.73047 25.6641 3.52344 23.2148 3.52344H13.0312C11.6602 3.52344 10.4766 3.875 9.51562 4.89453L2.61328 12.0664C1.85156 12.8516 1.5 13.5547 1.5 14.293C1.5 15.0195 1.83984 15.7344 2.61328 16.5195L9.52734 23.6562C10.5 24.6641 11.6719 25.0859 13.043 25.0859L23.2148 25.0977ZM23.1914 23.2109H13.0078C12.1172 23.2109 11.5664 23 10.9453 22.3672L4.07812 15.2773C3.67969 14.8672 3.5625 14.5859 3.5625 14.293C3.5625 13.9883 3.69141 13.707 4.07812 13.2969L10.9336 6.18359C11.543 5.5625 12.1172 5.41016 12.9961 5.41016H23.1914C24.3633 5.41016 25.0078 6.03125 25.0078 7.25V21.3711C25.0078 22.5898 24.3633 23.2109 23.1914 23.2109Z" fill="#A7A7A7"/>
<path d="M12.3516 19.2617C12.6094 19.2617 12.8438 19.1562 13.0195 18.9688L16.3477 15.6289L19.6758 18.9688C19.8516 19.1445 20.0859 19.2617 20.3555 19.2617C20.8711 19.2617 21.293 18.8281 21.293 18.3125C21.293 18.043 21.1875 17.8203 21.0117 17.6445L17.6836 14.3164L21.0234 10.9648C21.2109 10.7656 21.3047 10.5664 21.3047 10.3086C21.3047 9.78125 20.8828 9.37109 20.3672 9.37109C20.1211 9.37109 19.9102 9.45312 19.7109 9.65234L16.3477 13.0039L12.9961 9.66406C12.8203 9.47656 12.6094 9.39453 12.3516 9.39453C11.8359 9.39453 11.4141 9.79297 11.4141 10.3203C11.4141 10.5781 11.5078 10.8008 11.6953 10.9766L15.0234 14.3164L11.6953 17.6562C11.5078 17.8203 11.4141 18.0547 11.4141 18.3125C11.4141 18.8281 11.8359 19.2617 12.3516 19.2617Z" fill="#A7A7A7"/>
</g>
<defs>
<clipPath id="clip0_202_1980">
<rect width="25.3945" height="21.5977" fill="white" transform="translate(1.5 3.5)"/>
</clipPath>
</defs>
</svg>
