<svg width="24" height="24" viewBox="0 0 24 24" fill="none" xmlns="http://www.w3.org/2000/svg">
<g clip-path="url(#clip0_202_1972)">
<path d="M1.4375 7.97656C2.05859 7.97656 2.38672 7.625 2.38672 7.01562V4.25C2.38672 3.03125 3.03125 2.41016 4.20312 2.41016H7.03906C7.66016 2.41016 8 2.07031 8 1.46094C8 0.851562 7.66016 0.523438 7.03906 0.523438H4.17969C1.73047 0.523438 0.5 1.73047 0.5 4.14453V7.01562C0.5 7.625 0.839844 7.97656 1.4375 7.97656ZM22.4961 7.97656C23.1172 7.97656 23.4453 7.625 23.4453 7.01562V4.14453C23.4453 1.73047 22.2148 0.523438 19.7656 0.523438H16.8945C16.2852 0.523438 15.9453 0.851562 15.9453 1.46094C15.9453 2.07031 16.2852 2.41016 16.8945 2.41016H19.7305C20.8906 2.41016 21.5586 3.03125 21.5586 4.25V7.01562C21.5586 7.625 21.8984 7.97656 22.4961 7.97656ZM4.17969 23.457H7.03906C7.66016 23.457 8 23.1172 8 22.5195C8 21.9102 7.66016 21.5703 7.03906 21.5703H4.20312C3.03125 21.5703 2.38672 20.9492 2.38672 19.7305V16.9648C2.38672 16.3438 2.04688 16.0039 1.4375 16.0039C0.828125 16.0039 0.5 16.3438 0.5 16.9648V19.8242C0.5 22.25 1.73047 23.457 4.17969 23.457ZM16.8945 23.457H19.7656C22.2148 23.457 23.4453 22.2383 23.4453 19.8242V16.9648C23.4453 16.3438 23.1055 16.0039 22.4961 16.0039C21.8867 16.0039 21.5586 16.3438 21.5586 16.9648V19.7305C21.5586 20.9492 20.8906 21.5703 19.7305 21.5703H16.8945C16.2852 21.5703 15.9453 21.9102 15.9453 22.5195C15.9453 23.1172 16.2852 23.457 16.8945 23.457Z" fill="#A7A7A7"/>
<path d="M7.50781 11.1992C8.05859 11.1992 8.45703 10.8125 8.45703 10.25V8.65625C8.45703 8.09375 8.05859 7.70703 7.50781 7.70703C6.95703 7.70703 6.57031 8.09375 6.57031 8.65625V10.25C6.57031 10.8125 6.95703 11.1992 7.50781 11.1992ZM11.0352 13.9648C11.0586 13.9648 11.0938 13.9648 11.1289 13.9648C12.3125 13.9648 12.957 13.3203 12.957 12.1367V8.44531C12.957 7.98828 12.6523 7.69531 12.207 7.69531C11.7383 7.69531 11.4336 7.98828 11.4336 8.44531V12.2422C11.4336 12.3594 11.3633 12.418 11.2578 12.418H10.8477C10.4258 12.418 10.0977 12.7461 10.0977 13.168C10.0977 13.6719 10.4375 13.9648 11.0352 13.9648ZM16.4023 11.1992C16.9414 11.1992 17.3281 10.8125 17.3281 10.25V8.65625C17.3281 8.09375 16.9414 7.70703 16.4023 7.70703C15.8398 7.70703 15.4531 8.09375 15.4531 8.65625V10.25C15.4531 10.8125 15.8398 11.1992 16.4023 11.1992ZM11.9023 17.9023C13.3203 17.9023 14.75 17.293 15.7695 16.2734C15.9102 16.1445 15.9805 15.9453 15.9805 15.7109C15.9805 15.2656 15.6523 14.9492 15.2188 14.9492C14.9961 14.9492 14.832 15.0312 14.6094 15.2656C13.9648 15.9336 12.9453 16.3906 11.9023 16.3906C10.918 16.3906 9.88672 15.957 9.20703 15.2656C9.01953 15.0898 8.86719 14.9492 8.58594 14.9492C8.15234 14.9492 7.82422 15.2656 7.82422 15.7109C7.82422 15.9102 7.89453 16.0977 8.04688 16.2617C8.99609 17.3398 10.4844 17.9023 11.9023 17.9023Z" fill="#A7A7A7"/>
</g>
<defs>
<clipPath id="clip0_202_1972">
<rect width="22.9453" height="22.957" fill="white" transform="translate(0.5 0.5)"/>
</clipPath>
</defs>
</svg>
