<svg width="48" height="48" viewBox="0 0 48 48" fill="none" xmlns="http://www.w3.org/2000/svg">
<g clip-path="url(#clip0_106_3289)">
<path d="M1.71423 23.9195C1.71423 35.1093 11.0156 44.4105 22.2053 44.4105C28.9753 44.4105 34.982 40.9753 38.779 35.8324C39.4619 34.9485 39.241 33.8437 38.4375 33.3414C37.5937 32.8391 36.6294 33.1004 36.0267 33.9241C32.9329 38.1829 27.9308 40.9753 22.2053 40.9955C12.7232 41.0156 5.12942 33.4017 5.12942 23.9195C5.12942 14.4374 12.7232 6.86374 22.2053 6.86374C30.3615 6.86374 37.1115 12.4486 38.8391 20.0423H35.9465C34.52 20.0423 34.1585 21.0266 34.9218 22.1317L39.4218 28.54C40.0647 29.4441 41.029 29.4642 41.6919 28.54L46.1718 22.1517C46.9753 21.0266 46.5937 20.0423 45.1674 20.0423H42.3147C40.4866 10.6405 32.0893 3.42847 22.2053 3.42847C11.0156 3.42847 1.71423 12.7097 1.71423 23.9195Z" fill="#DFDFDF"/>
<path d="M14.933 31.8548C14.933 33.3615 15.5959 34.0647 16.9821 34.0647H27.3884C28.7746 34.0647 29.4375 33.3615 29.4375 31.8548V23.8594C29.4375 22.4532 28.8548 21.75 27.6695 21.6696V19.2991C27.6695 15.6026 25.4598 13.1116 22.1852 13.1116C18.9106 13.1116 16.7008 15.6026 16.7008 19.2991V21.6696C15.5156 21.75 14.933 22.4532 14.933 23.8594V31.8548ZM18.7901 21.6495V19.0781C18.7901 16.7075 20.1562 15.1406 22.1852 15.1406C24.2142 15.1406 25.5803 16.7075 25.5803 19.0781V21.6495H18.7901Z" fill="#DFDFDF"/>
</g>
<defs>
<clipPath id="clip0_106_3289">
<rect width="44.8718" height="41.0023" fill="white" transform="translate(1.71423 3.42847)"/>
</clipPath>
</defs>
</svg>
