<svg width="48" height="48" viewBox="0 0 48 48" fill="none" xmlns="http://www.w3.org/2000/svg">
<g clip-path="url(#clip0_106_3194)">
<path d="M14.8092 43.1752H33.1909C36.1439 43.1752 37.7109 41.568 37.7109 38.3939V24.5524C37.7109 21.3983 36.1439 19.7912 33.1909 19.7912H14.8092C11.856 19.7912 10.2891 21.3983 10.2891 24.5524V38.3939C10.2891 41.568 11.856 43.1752 14.8092 43.1752ZM14.9096 40.1416C14.0458 40.1416 13.5435 39.5992 13.5435 38.6148V24.3314C13.5435 23.3471 14.0458 22.8247 14.9096 22.8247H33.0904C33.9743 22.8247 34.4565 23.3471 34.4565 24.3314V38.6148C34.4565 39.5992 33.9743 40.1416 33.0904 40.1416H14.9096ZM13.8047 21.3381H16.9989V14.568C16.9989 9.48538 20.2333 6.81351 23.99 6.81351C27.7467 6.81351 31.0213 9.48538 31.0213 14.568V21.3381H34.1953V14.9898C34.1953 7.43628 29.2533 3.78003 23.99 3.78003C18.7466 3.78003 13.8047 7.43628 13.8047 14.9898V21.3381Z" fill="#DFDFDF"/>
<path d="M23.9898 33.5125C24.713 33.5125 25.1148 33.0704 25.1349 32.3473L25.3358 25.9187C25.3559 25.1754 24.7733 24.6128 23.9898 24.6128C23.1863 24.6128 22.6237 25.1554 22.6438 25.8985L22.8447 32.3473C22.8648 33.0704 23.2666 33.5125 23.9898 33.5125ZM23.9898 37.9321C24.8737 37.9321 25.597 37.2289 25.597 36.3851C25.597 35.5013 24.8737 34.8183 23.9898 34.8183C23.126 34.8183 22.4229 35.5213 22.4229 36.3851C22.4229 37.2289 23.1461 37.9321 23.9898 37.9321Z" fill="#DFDFDF"/>
</g>
<defs>
<clipPath id="clip0_106_3194">
<rect width="27.4219" height="40.4397" fill="white" transform="translate(10.2891 3.78003)"/>
</clipPath>
</defs>
</svg>
