<svg width="48" height="48" viewBox="0 0 48 48" fill="none" xmlns="http://www.w3.org/2000/svg">
<g clip-path="url(#clip0_106_3172)">
<path d="M7.49351 7.55364C5.52476 9.5224 5.14307 12.2545 5.14307 15.509V15.7099H8.37744V15.3885C8.37744 13.2791 8.6386 11.1094 9.84396 9.90408C11.0694 8.67864 13.2591 8.41749 15.3685 8.41749H15.7301V5.18311H15.4891C12.2346 5.18311 9.48235 5.5648 7.49351 7.55364ZM18.4824 8.41749H28.8484V5.18311H18.4824V8.41749ZM39.8373 7.55364C37.8484 5.5648 35.0963 5.18311 31.7815 5.18311H31.5806V8.41749H32.0226C34.0917 8.41749 36.2613 8.69873 37.4668 9.90408C38.6922 11.1295 38.9534 13.259 38.9534 15.3282V15.7099H42.1878V15.5693C42.1878 12.2344 41.806 9.5023 39.8373 7.55364ZM38.9534 28.7678H42.1878V18.4621H38.9534V28.7678ZM39.8373 39.6764C41.806 37.7077 42.1878 34.9957 42.1878 31.6609V31.5201H38.9534V31.8818C38.9534 33.971 38.6922 36.1005 37.4668 37.3259C36.2613 38.5314 34.0917 38.8125 32.0226 38.8125H31.5806V42.0469H31.7815C35.0963 42.0469 37.8484 41.6653 39.8373 39.6764ZM18.4824 42.0469H28.8484V38.8125H18.4824V42.0469ZM7.49351 39.6764C9.48235 41.6653 12.2346 42.0469 15.5292 42.0469H15.7301V38.8125H15.3082C13.2391 38.8125 11.0694 38.5314 9.84396 37.3259C8.6386 36.1005 8.37744 33.971 8.37744 31.8818V31.5201H5.14307V31.6609C5.14307 34.9957 5.52476 37.7077 7.49351 39.6764ZM5.14307 28.7678H8.37744V18.4621H5.14307V28.7678Z" fill="#DFDFDF"/>
<path d="M16.4131 31.5001C16.4131 33.0068 17.076 33.71 18.4622 33.71H28.8684C30.2748 33.71 30.9377 33.0068 30.9377 31.5001V23.5045C30.9377 22.0983 30.355 21.4153 29.1497 21.3349V18.9443C29.1497 15.2478 26.9398 12.7769 23.6653 12.7769C20.4109 12.7769 18.1809 15.2478 18.1809 18.9443V21.3349C16.9957 21.4153 16.4131 22.0983 16.4131 23.5045V31.5001ZM20.2702 21.3148V18.7233C20.2702 16.3728 21.6363 14.8059 23.6653 14.8059C25.7144 14.8059 27.0605 16.3728 27.0605 18.7233V21.3148H20.2702Z" fill="#DFDFDF"/>
</g>
<defs>
<clipPath id="clip0_106_3172">
<rect width="37.0447" height="36.9039" fill="white" transform="translate(5.14307 5.14282)"/>
</clipPath>
</defs>
</svg>
